<svg width="22" height="22" viewBox="0 0 22 22" fill="none" xmlns="http://www.w3.org/2000/svg">
<path d="M20.1713 12.9473L21.9768 4.0098C22.1072 3.3645 21.6712 2.75 21.083 2.75H6.08086L5.73077 0.82457C5.64354 0.344652 5.26816 0 4.83271 0H0.916667C0.410399 0 0 0.461699 0 1.03125V1.71875C0 2.2883 0.410399 2.75 0.916667 2.75H3.58581L6.26889 17.507C5.627 17.9223 5.19445 18.7009 5.19445 19.5938C5.19445 20.9227 6.15206 22 7.33333 22C8.51461 22 9.47222 20.9227 9.47222 19.5938C9.47222 18.9203 9.22598 18.3118 8.82964 17.875H16.837C16.4407 18.3118 16.1944 18.9203 16.1944 19.5938C16.1944 20.9227 17.1521 22 18.3333 22C19.5146 22 20.4722 20.9227 20.4722 19.5938C20.4722 18.641 19.98 17.8178 19.2661 17.4279L19.4768 16.3848C19.6072 15.7395 19.1712 15.125 18.5829 15.125H8.33086L8.08088 13.75H19.2774C19.7054 13.75 20.0764 13.4168 20.1713 12.9473Z" fill="#A87A16"/>
</svg>
