<svg width="19" height="19" viewBox="0 0 19 19" fill="none" xmlns="http://www.w3.org/2000/svg">
<path d="M16.3661 0H1.96393C1.44306 0 0.943529 0.206913 0.575221 0.575221C0.206913 0.943529 0 1.44306 0 1.96393L0 16.3661C0 16.8869 0.206913 17.3865 0.575221 17.7548C0.943529 18.1231 1.44306 18.33 1.96393 18.33H7.57954V12.0982H5.00188V9.165H7.57954V6.92939C7.57954 4.38652 9.0934 2.9819 11.4121 2.9819C12.5225 2.9819 13.6837 3.17993 13.6837 3.17993V5.67575H12.4043C11.1437 5.67575 10.7505 6.45805 10.7505 7.2604V9.165H13.5646L13.1145 12.0982H10.7505V18.33H16.3661C16.8869 18.33 17.3865 18.1231 17.7548 17.7548C18.1231 17.3865 18.33 16.8869 18.33 16.3661V1.96393C18.33 1.44306 18.1231 0.943529 17.7548 0.575221C17.3865 0.206913 16.8869 0 16.3661 0Z" fill="url(#paint0_linear)"/>
<defs>
<linearGradient id="paint0_linear" x1="9.165" y1="0" x2="-12.0163" y2="30.3463" gradientUnits="userSpaceOnUse">
<stop offset="0.15625" stop-color="#BF953F"/>
<stop offset="0.510417" stop-color="#FCF6BA"/>
<stop offset="0.822917" stop-color="#B38728"/>
</linearGradient>
</defs>
</svg>
