<svg width="19" height="19" viewBox="0 0 19 19" fill="none" xmlns="http://www.w3.org/2000/svg">
<path d="M9.16871 4.46623C6.56748 4.46623 4.46932 6.56486 4.46932 9.16667C4.46932 11.7685 6.56748 13.8671 9.16871 13.8671C11.7699 13.8671 13.8681 11.7685 13.8681 9.16667C13.8681 6.56486 11.7699 4.46623 9.16871 4.46623ZM9.16871 12.2226C7.48773 12.2226 6.1135 10.8521 6.1135 9.16667C6.1135 7.48122 7.48364 6.11077 9.16871 6.11077C10.8538 6.11077 12.2239 7.48122 12.2239 9.16667C12.2239 10.8521 10.8497 12.2226 9.16871 12.2226ZM15.1564 4.27396C15.1564 4.8835 14.6656 5.37032 14.0603 5.37032C13.4509 5.37032 12.9642 4.87941 12.9642 4.27396C12.9642 3.66851 13.455 3.1776 14.0603 3.1776C14.6656 3.1776 15.1564 3.66851 15.1564 4.27396ZM18.2689 5.38668C18.1994 3.91805 17.864 2.61715 16.7883 1.54533C15.7168 0.473521 14.4162 0.138068 12.9479 0.0644315C11.4346 -0.0214772 6.89877 -0.0214772 5.38548 0.0644315C3.92127 0.133977 2.62065 0.46943 1.54499 1.54124C0.469325 2.61306 0.138037 3.91396 0.0644172 5.38259C-0.0214724 6.89622 -0.0214724 11.433 0.0644172 12.9466C0.133947 14.4153 0.469325 15.7162 1.54499 16.788C2.62065 17.8598 3.91718 18.1953 5.38548 18.2689C6.89877 18.3548 11.4346 18.3548 12.9479 18.2689C14.4162 18.1994 15.7168 17.8639 16.7883 16.788C17.8599 15.7162 18.1953 14.4153 18.2689 12.9466C18.3548 11.433 18.3548 6.90031 18.2689 5.38668ZM16.3139 14.5707C15.9949 15.3725 15.3773 15.9903 14.5716 16.3135C13.365 16.7921 10.502 16.6816 9.16871 16.6816C7.83538 16.6816 4.9683 16.788 3.76585 16.3135C2.96421 15.9944 2.34663 15.3766 2.02352 14.5707C1.54499 13.3639 1.65542 10.5003 1.65542 9.16667C1.65542 7.83303 1.54908 4.96532 2.02352 3.7626C2.34254 2.96078 2.96012 2.34306 3.76585 2.01988C4.97239 1.54124 7.83538 1.6517 9.16871 1.6517C10.502 1.6517 13.3691 1.54533 14.5716 2.01988C15.3732 2.33897 15.9908 2.95669 16.3139 3.7626C16.7924 4.96941 16.682 7.83303 16.682 9.16667C16.682 10.5003 16.7924 13.368 16.3139 14.5707Z" fill="url(#paint0_linear)"/>
<defs>
<linearGradient id="paint0_linear" x1="9.16667" y1="0" x2="9.16667" y2="18.3333" gradientUnits="userSpaceOnUse">
<stop offset="0.15625" stop-color="#BF953F"/>
<stop offset="0.510417" stop-color="#FCF6BA"/>
<stop offset="0.822917" stop-color="#B38728"/>
</linearGradient>
</defs>
</svg>
